# Blender 3.3.0
# www.blender.org
mtllib Building2.mtl
o Cube
v -5.663616 16.852581 -7.148022
v -6.613898 16.060534 6.478965
v -6.613898 0.720557 6.478965
v 5.663616 16.852581 -7.148022
v 5.663616 -0.071492 -7.148022
v 5.663616 16.852581 7.148022
v 5.663616 -0.071492 7.148022
v 5.663616 -0.071492 -2.382674
v 5.663616 -0.071492 2.382674
v -5.663616 16.852581 -2.382674
v -6.613898 16.060534 3.051731
v 5.663616 16.852581 2.382674
v 5.663616 16.852581 -2.382674
v -6.613898 0.720557 3.051731
v -5.663616 16.852581 7.148022
v -5.663616 -0.071492 7.148022
v -5.663616 16.852581 2.382674
v -5.663616 -0.071492 2.382674
v -5.663616 4.214475 -7.148022
v 5.663616 4.214475 7.148022
v -5.663616 4.214475 7.148022
v 5.663616 4.214475 -7.148022
v -5.663616 4.214475 -2.382674
v -5.663616 4.214475 2.382674
v 5.663616 4.214475 2.382674
v 5.663616 4.214475 -2.382674
v -6.613898 4.605356 6.478965
v -6.613898 4.605356 3.051731
v -1.751987 4.214475 -7.148022
v -1.751987 -0.071492 -7.148022
v -1.751987 -0.071492 -2.382674
v -1.751987 -0.071492 2.382674
v -1.751987 4.214475 -2.382674
v -1.751987 4.214475 2.382674
vn -0.0000 1.0000 -0.0000
vn -0.0000 -0.0000 1.0000
vn 1.0000 -0.0000 -0.0000
vn -0.0000 -1.0000 -0.0000
vn -1.0000 -0.0000 -0.0000
vn -0.0000 -0.0000 -1.0000
vn -0.5757 -0.0000 0.8177
vn -0.6403 0.7682 -0.0000
vn -0.6403 -0.7682 -0.0000
vn -0.5757 -0.0000 -0.8177
vt 0.625000 0.500000
vt 0.613300 0.738300
vt 0.386700 0.738300
vt 0.625000 0.250000
vt 0.875000 0.500000
vt 0.375000 0.250000
vt 0.875000 0.750000
vt 0.625000 1.000000
vt 0.625000 0.000000
vt 0.125000 0.750000
vt 0.375000 0.000000
vt 0.375000 1.000000
vt 0.375000 0.166667
vt 0.125000 0.666667
vt 0.375000 0.083333
vt 0.625000 0.583333
vt 0.613300 0.678367
vt 0.625000 0.083333
vt 0.875000 0.666667
vt 0.625000 0.166667
vt 0.875000 0.583333
vt 0.386700 0.678367
vt 0.625000 0.750000
vt 0.375000 0.750000
vt 0.625000 0.666667
vt 0.375000 0.666667
vt 0.438312 0.500000
vt 0.438312 0.000000
vt 0.438312 1.000000
vt 0.438312 0.750000
vt 0.438312 0.250000
vt 0.438312 0.583333
vt 0.438312 0.666667
vt 0.438312 0.083333
vt 0.438312 0.166667
vt 0.444086 0.738300
vt 0.444086 0.678367
vt 0.438312 0.500000
vt 0.375000 0.500000
vt 0.375000 0.583333
vt 0.375000 0.666667
vt 0.438312 0.583333
vt 0.438312 0.666667
s 0
usemtl Material
f 17/25/1 15/23/1 6/7/1 12/19/1
f 21/30/2 20/29/2 6/8/2 15/23/2
f 26/35/3 22/31/3 4/4/3 13/20/3
f 9/14/4 7/10/4 16/24/4 18/26/4
f 28/37/5 27/36/5 2/2/5 11/17/5
f 22/31/6 19/27/6 1/1/6 4/4/6
f 19/27/5 23/32/5 10/16/5 1/1/5
f 23/32/5 24/33/5 17/25/5 10/16/5
f 30/39/4 5/6/4 8/13/4 31/40/4
f 32/41/4 31/40/4 8/13/4 9/15/4
f 20/28/3 25/34/3 12/18/3 6/9/3
f 25/34/3 26/35/3 13/20/3 12/18/3
f 1/1/1 10/16/1 13/21/1 4/5/1
f 10/16/1 17/25/1 12/19/1 13/21/1
f 27/36/7 21/30/7 15/23/7 2/2/7
f 2/2/8 15/23/8 17/25/8 11/17/8
f 14/22/9 18/26/9 16/24/9 3/3/9
f 28/37/10 24/33/10 18/26/10 14/22/10
f 11/17/10 17/25/10 24/33/10 28/37/10
f 3/3/7 16/24/7 21/30/7 27/36/7
f 9/15/3 8/13/3 26/35/3 25/34/3
f 7/11/3 9/15/3 25/34/3 20/28/3
f 19/27/4 29/38/4 33/42/4 23/32/4
f 30/39/6 29/38/6 22/31/6 5/6/6
f 14/22/5 3/3/5 27/36/5 28/37/5
f 8/13/3 5/6/3 22/31/3 26/35/3
f 16/24/2 7/12/2 20/29/2 21/30/2
f 31/40/5 32/41/5 34/43/5 33/42/5
f 30/39/5 31/40/5 33/42/5 29/38/5
f 24/33/6 34/43/6 32/41/6 18/26/6
f 23/32/4 33/42/4 34/43/4 24/33/4
