# Blender 3.3.0
# www.blender.org
mtllib DioramaTV.mtl
o Cube
v -0.048698 0.052765 1.000000
v -0.048698 1.504831 1.000000
v -0.048698 0.052765 -1.000000
v -0.048698 1.504831 -1.000000
v 0.048698 0.146858 0.897116
v 0.048698 1.442141 0.897116
v 0.048698 0.146858 -0.899582
v 0.048698 1.442141 -0.899582
v 0.048698 1.504831 -1.000000
v 0.048698 0.052765 -1.000000
v 0.048698 0.052765 1.000000
v 0.048698 1.504831 1.000000
v 0.048698 1.504831 -1.000000
v 0.048698 0.052765 -1.000000
v 0.048698 0.052765 1.000000
v 0.048698 1.504831 1.000000
v 0.001217 1.321710 -0.747780
v 0.001217 0.235885 -0.747780
v 0.001217 0.235885 0.747780
v 0.001217 1.321710 0.747780
vn -1.0000 -0.0000 -0.0000
vn -0.0000 -0.0000 -1.0000
vn 0.9303 -0.3668 -0.0000
vn -0.0000 -0.0000 1.0000
vn -0.0000 -1.0000 -0.0000
vn -0.0000 1.0000 -0.0000
vn 1.0000 -0.0000 -0.0000
vn 0.9544 -0.0000 0.2985
vn 0.9530 -0.0000 -0.3030
vn 0.8824 0.4706 -0.0000
vt 0.375000 0.000000
vt 0.375000 1.000000
vt 0.125000 0.750000
vt 0.625000 0.000000
vt 0.625000 1.000000
vt 0.875000 0.750000
vt 0.375000 0.250000
vt 0.125000 0.500000
vt 0.625000 0.250000
vt 0.875000 0.500000
vt 0.406528 0.718472
vt 0.593472 0.718472
vt 0.406528 0.531528
vt 0.593472 0.531528
vt 0.000000 0.000000
vt 0.625000 0.500000
vt 0.000000 0.000000
vt 0.375000 0.500000
vt 0.375000 0.750000
vt 0.000000 0.000000
vt 0.625000 0.750000
vt 0.000000 0.000000
vt 0.000000 0.000000
vt 0.625000 0.500000
vt 0.000000 0.000000
vt 0.375000 0.500000
vt 0.000000 0.000000
vt 0.375000 0.750000
vt 0.000000 0.000000
vt 0.625000 0.750000
vt 0.593472 0.531528
vt 0.406528 0.531528
vt 0.406528 0.718472
vt 0.593472 0.718472
s 0
f 1/1/1 2/4/1 4/9/1 3/7/1
f 3/7/2 4/9/2 9/16/2 10/18/2
f 8/14/3 6/12/3 20/34/3 17/31/3
f 11/19/4 12/21/4 2/5/4 1/2/4
f 3/8/5 10/18/5 11/19/5 1/3/5
f 9/16/6 4/10/6 2/6/6 12/21/6
f 13/23/6 14/25/6 10/17/6 9/15/6
f 14/26/6 15/28/6 11/19/6 10/18/6
f 16/30/6 13/24/6 9/16/6 12/21/6
f 15/27/6 16/29/6 12/22/6 11/20/6
f 8/14/7 7/13/7 14/26/7 13/24/7
f 7/13/7 5/11/7 15/28/7 14/26/7
f 6/12/7 8/14/7 13/24/7 16/30/7
f 5/11/7 6/12/7 16/30/7 15/28/7
f 18/32/7 17/31/7 20/34/7 19/33/7
f 7/13/8 8/14/8 17/31/8 18/32/8
f 6/12/9 5/11/9 19/33/9 20/34/9
f 5/11/10 7/13/10 18/32/10 19/33/10
o Cube.001
v -0.048698 0.052765 1.000000
v -0.048698 1.504831 1.000000
v -0.048698 0.052765 -1.000000
v -0.048698 1.504831 -1.000000
v 0.048698 0.146858 0.897116
v 0.048698 1.442141 0.897116
v 0.048698 0.146858 -0.899582
v 0.048698 1.442141 -0.899582
v 0.048698 1.504831 -1.000000
v 0.048698 0.052765 -1.000000
v 0.048698 0.052765 1.000000
v 0.048698 1.504831 1.000000
v 0.048698 1.504831 -1.000000
v 0.048698 0.052765 -1.000000
v 0.048698 0.052765 1.000000
v 0.048698 1.504831 1.000000
v 0.001217 1.321710 -0.747780
v 0.001217 0.235885 -0.747780
v 0.001217 0.235885 0.747780
v 0.001217 1.321710 0.747780
vn -1.0000 -0.0000 -0.0000
vn -0.0000 -0.0000 -1.0000
vn 0.9303 -0.3668 -0.0000
vn -0.0000 -0.0000 1.0000
vn -0.0000 -1.0000 -0.0000
vn -0.0000 1.0000 -0.0000
vn 1.0000 -0.0000 -0.0000
vn 0.9544 -0.0000 0.2985
vn 0.9530 -0.0000 -0.3030
vn 0.8824 0.4706 -0.0000
vt 0.375000 0.000000
vt 0.375000 1.000000
vt 0.125000 0.750000
vt 0.625000 0.000000
vt 0.625000 1.000000
vt 0.875000 0.750000
vt 0.375000 0.250000
vt 0.125000 0.500000
vt 0.625000 0.250000
vt 0.875000 0.500000
vt 0.406528 0.718472
vt 0.593472 0.718472
vt 0.406528 0.531528
vt 0.593472 0.531528
vt 0.000000 0.000000
vt 0.625000 0.500000
vt 0.000000 0.000000
vt 0.375000 0.500000
vt 0.375000 0.750000
vt 0.000000 0.000000
vt 0.625000 0.750000
vt 0.000000 0.000000
vt 0.000000 0.000000
vt 0.625000 0.500000
vt 0.000000 0.000000
vt 0.375000 0.500000
vt 0.000000 0.000000
vt 0.375000 0.750000
vt 0.000000 0.000000
vt 0.625000 0.750000
vt 0.593472 0.531528
vt 0.406528 0.531528
vt 0.406528 0.718472
vt 0.593472 0.718472
s 0
f 21/35/11 22/38/11 24/43/11 23/41/11
f 23/41/12 24/43/12 29/50/12 30/52/12
f 28/48/13 26/46/13 40/68/13 37/65/13
f 31/53/14 32/55/14 22/39/14 21/36/14
f 23/42/15 30/52/15 31/53/15 21/37/15
f 29/50/16 24/44/16 22/40/16 32/55/16
f 33/57/16 34/59/16 30/51/16 29/49/16
f 34/60/16 35/62/16 31/53/16 30/52/16
f 36/64/16 33/58/16 29/50/16 32/55/16
f 35/61/16 36/63/16 32/56/16 31/54/16
f 28/48/17 27/47/17 34/60/17 33/58/17
f 27/47/17 25/45/17 35/62/17 34/60/17
f 26/46/17 28/48/17 33/58/17 36/64/17
f 25/45/17 26/46/17 36/64/17 35/62/17
f 38/66/17 37/65/17 40/68/17 39/67/17
f 27/47/18 28/48/18 37/65/18 38/66/18
f 26/46/19 25/45/19 39/67/19 40/68/19
f 25/45/20 27/47/20 38/66/20 39/67/20
